<svg width="18" height="18" viewBox="0 0 18 18" fill="none" xmlns="http://www.w3.org/2000/svg">
<path opacity="0.2" d="M13.8203 7.06445C13.8203 7.95447 13.5564 8.8245 13.0619 9.56452C12.5675 10.3045 11.8647 10.8813 11.0424 11.2219C10.2201 11.5625 9.31532 11.6516 8.44241 11.478C7.56949 11.3044 6.76767 10.8758 6.13833 10.2464C5.509 9.6171 5.08041 8.81527 4.90678 7.94236C4.73315 7.06945 4.82226 6.16465 5.16286 5.34238C5.50345 4.52011 6.08023 3.81731 6.82025 3.32284C7.56027 2.82837 8.4303 2.56445 9.32031 2.56445C10.5138 2.56445 11.6584 3.03856 12.5023 3.88247C13.3462 4.72639 13.8203 5.87098 13.8203 7.06445Z" fill="white"/>
<path d="M16.5561 15.2207C15.4853 13.3693 13.835 12.0418 11.9092 11.4125C12.8618 10.8454 13.6019 9.98131 14.0159 8.95286C14.4298 7.92441 14.4948 6.78851 14.2007 5.71959C13.9066 4.65066 13.2698 3.70783 12.388 3.03588C11.5062 2.36392 10.4282 2 9.31956 2C8.21092 2 7.13293 2.36392 6.25114 3.03588C5.36934 3.70783 4.73251 4.65066 4.43842 5.71959C4.14434 6.78851 4.20926 7.92441 4.62324 8.95286C5.03721 9.98131 5.77733 10.8454 6.72995 11.4125C4.80409 12.0411 3.15385 13.3686 2.08299 15.2207C2.04372 15.2847 2.01768 15.3559 2.00639 15.4302C1.9951 15.5045 1.9988 15.5802 2.01727 15.653C2.03574 15.7259 2.0686 15.7942 2.11393 15.8541C2.15925 15.914 2.21611 15.9643 2.28115 16.0018C2.3462 16.0394 2.41811 16.0636 2.49264 16.0729C2.56717 16.0822 2.64282 16.0765 2.71512 16.0561C2.78742 16.0358 2.8549 16.0011 2.91359 15.9542C2.97227 15.9073 3.02098 15.8492 3.05682 15.7832C4.38151 13.4938 6.72292 12.1269 9.31956 12.1269C11.9162 12.1269 14.2576 13.4938 15.5823 15.7832C15.6181 15.8492 15.6668 15.9073 15.7255 15.9542C15.7842 16.0011 15.8517 16.0358 15.924 16.0561C15.9963 16.0765 16.0719 16.0822 16.1465 16.0729C16.221 16.0636 16.2929 16.0394 16.358 16.0018C16.423 15.9643 16.4799 15.914 16.5252 15.8541C16.5705 15.7942 16.6034 15.7259 16.6218 15.653C16.6403 15.5802 16.644 15.5045 16.6327 15.4302C16.6214 15.3559 16.5954 15.2847 16.5561 15.2207ZM5.38206 7.06441C5.38206 6.28565 5.61299 5.52437 6.04565 4.87686C6.4783 4.22934 7.09326 3.72466 7.81274 3.42664C8.53222 3.12862 9.32393 3.05064 10.0877 3.20257C10.8515 3.3545 11.5531 3.72951 12.1038 4.28018C12.6545 4.83085 13.0295 5.53244 13.1814 6.29625C13.3333 7.06005 13.2554 7.85175 12.9573 8.57123C12.6593 9.29071 12.1546 9.90567 11.5071 10.3383C10.8596 10.771 10.0983 11.0019 9.31956 11.0019C8.27561 11.0008 7.27474 10.5856 6.53656 9.84741C5.79837 9.10923 5.38317 8.10836 5.38206 7.06441Z" fill="white"/>
</svg>
