<svg width="18" height="18" viewBox="0 0 18 18" fill="none" xmlns="http://www.w3.org/2000/svg">
<path opacity="0.2" d="M15.75 8.99985C15.751 9.94648 15.5524 10.8827 15.1671 11.7474C14.7819 12.6121 14.2186 13.3858 13.5141 14.0181C13.0905 13.1849 12.4446 12.4853 11.6478 11.9967C10.8511 11.5081 9.93463 11.2496 9 11.2498C9.55626 11.2498 10.1 11.0849 10.5625 10.7759C11.0251 10.4668 11.3855 10.0276 11.5984 9.51365C11.8113 8.99973 11.867 8.43423 11.7585 7.88866C11.6499 7.34309 11.3821 6.84195 10.9887 6.44861C10.5954 6.05528 10.0943 5.78741 9.54869 5.67889C9.00312 5.57037 8.43762 5.62607 7.9237 5.83894C7.40979 6.05181 6.97053 6.4123 6.66149 6.87481C6.35245 7.33732 6.1875 7.88109 6.1875 8.43735C6.1875 9.18327 6.48382 9.89864 7.01126 10.4261C7.53871 10.9535 8.25408 11.2498 9 11.2498C8.06538 11.2496 7.14893 11.5081 6.35218 11.9967C5.55544 12.4853 4.90951 13.1849 4.48594 14.0181C3.6494 13.2656 3.01422 12.316 2.63817 11.2555C2.26211 10.1951 2.15711 9.05743 2.33271 7.94606C2.50831 6.83469 2.95894 5.78484 3.64363 4.89199C4.32831 3.99913 5.22533 3.2916 6.2531 2.83372C7.28088 2.37584 8.40681 2.18214 9.52852 2.27024C10.6502 2.35833 11.7321 2.72543 12.6758 3.33815C13.6195 3.95087 14.3951 4.78977 14.932 5.77857C15.4689 6.76737 15.7501 7.87469 15.75 8.99985Z" fill="white"/>
<path d="M9 1.6875C7.55373 1.6875 6.13993 2.11637 4.9374 2.91988C3.73486 3.72339 2.7976 4.86544 2.24413 6.20163C1.69067 7.53781 1.54586 9.00811 1.82801 10.4266C2.11017 11.8451 2.80661 13.148 3.82928 14.1707C4.85196 15.1934 6.15492 15.8898 7.57341 16.172C8.99189 16.4541 10.4622 16.3093 11.7984 15.7559C13.1346 15.2024 14.2766 14.2651 15.0801 13.0626C15.8836 11.8601 16.3125 10.4463 16.3125 9C16.3105 7.06123 15.5394 5.20246 14.1685 3.83154C12.7975 2.46063 10.9388 1.68955 9 1.6875ZM5.20875 13.8867C5.61568 13.2503 6.17626 12.7266 6.83882 12.3638C7.50139 12.001 8.24462 11.8109 9 11.8109C9.75539 11.8109 10.4986 12.001 11.1612 12.3638C11.8237 12.7266 12.3843 13.2503 12.7913 13.8867C11.7073 14.7298 10.3732 15.1875 9 15.1875C7.62678 15.1875 6.29274 14.7298 5.20875 13.8867ZM6.75 8.4375C6.75 7.99249 6.88196 7.55748 7.1292 7.18747C7.37643 6.81746 7.72783 6.52907 8.13897 6.35877C8.5501 6.18847 9.0025 6.14392 9.43896 6.23073C9.87541 6.31755 10.2763 6.53184 10.591 6.84651C10.9057 7.16118 11.12 7.56209 11.2068 7.99855C11.2936 8.435 11.249 8.8874 11.0787 9.29854C10.9084 9.70967 10.62 10.0611 10.25 10.3083C9.88003 10.5555 9.44501 10.6875 9 10.6875C8.40327 10.6875 7.83097 10.4504 7.40901 10.0285C6.98706 9.60653 6.75 9.03424 6.75 8.4375ZM13.6238 13.107C12.9964 12.1979 12.1143 11.4946 11.0883 11.0855C11.6394 10.6514 12.0416 10.0564 12.2388 9.38313C12.4361 8.7099 12.4187 7.99192 12.189 7.32906C11.9593 6.66619 11.5287 6.09137 10.9572 5.68455C10.3856 5.27772 9.70154 5.05911 9 5.05911C8.29846 5.05911 7.61436 5.27772 7.04283 5.68455C6.47129 6.09137 6.04074 6.66619 5.81104 7.32906C5.58134 7.99192 5.56391 8.7099 5.76118 9.38313C5.95845 10.0564 6.3606 10.6514 6.91172 11.0855C5.88573 11.4946 5.0036 12.1979 4.37625 13.107C3.58353 12.2155 3.0654 11.1139 2.88425 9.93481C2.70311 8.7557 2.86668 7.54938 3.35526 6.46108C3.84384 5.37279 4.6366 4.44894 5.63808 3.80077C6.63957 3.1526 7.80707 2.80775 9 2.80775C10.1929 2.80775 11.3604 3.1526 12.3619 3.80077C13.3634 4.44894 14.1562 5.37279 14.6447 6.46108C15.1333 7.54938 15.2969 8.7557 15.1158 9.93481C14.9346 11.1139 14.4165 12.2155 13.6238 13.107Z" fill="white"/>
</svg>
