<svg width="24" height="24" viewBox="0 0 24 24" fill="none" xmlns="http://www.w3.org/2000/svg">
<path opacity="0.2" d="M19.4994 18H4.49939C4.36813 17.9992 4.23936 17.964 4.12598 17.8978C4.01259 17.8317 3.91855 17.7369 3.85326 17.6231C3.78797 17.5092 3.75371 17.3801 3.75391 17.2489C3.75411 17.1176 3.78876 16.9887 3.85439 16.875C4.47221 15.8062 5.24939 13.1072 5.24939 9.75C5.2494 7.95979 5.96055 6.2429 7.22642 4.97703C8.49229 3.71116 10.2092 3 11.9994 3C13.7896 3 15.5065 3.71116 16.7724 4.97703C18.0382 6.2429 18.7494 7.95979 18.7494 9.75C18.7494 13.1081 19.5275 15.8062 20.1463 16.875C20.212 16.9888 20.2466 17.1179 20.2468 17.2493C20.2469 17.3808 20.2124 17.5099 20.1469 17.6239C20.0814 17.7378 19.9871 17.8325 19.8735 17.8985C19.7598 17.9645 19.6308 17.9995 19.4994 18Z" fill="white"/>
<path d="M15.7499 21C15.7499 21.1989 15.6709 21.3897 15.5303 21.5303C15.3896 21.671 15.1988 21.75 14.9999 21.75H8.99993C8.80102 21.75 8.61025 21.671 8.4696 21.5303C8.32895 21.3897 8.24993 21.1989 8.24993 21C8.24993 20.8011 8.32895 20.6103 8.4696 20.4697C8.61025 20.329 8.80102 20.25 8.99993 20.25H14.9999C15.1988 20.25 15.3896 20.329 15.5303 20.4697C15.6709 20.6103 15.7499 20.8011 15.7499 21ZM20.7984 18C20.6682 18.2292 20.4793 18.4196 20.2511 18.5514C20.0228 18.6833 19.7635 18.7518 19.4999 18.75H4.49993C4.23625 18.7496 3.97731 18.6798 3.74923 18.5475C3.52115 18.4151 3.33198 18.225 3.20079 17.9963C3.0696 17.7676 3.00102 17.5083 3.00196 17.2446C3.00291 16.9809 3.07335 16.7222 3.20618 16.4944C3.72649 15.5981 4.49993 13.0631 4.49993 9.75C4.49993 7.76088 5.29011 5.85322 6.69663 4.4467C8.10315 3.04018 10.0108 2.25 11.9999 2.25C13.9891 2.25 15.8967 3.04018 17.3032 4.4467C18.7098 5.85322 19.4999 7.76088 19.4999 9.75C19.4999 13.0622 20.2743 15.5981 20.7946 16.4944C20.9288 16.7225 20.9997 16.9822 21.0002 17.2468C21.0007 17.5114 20.9307 17.7714 20.7974 18H20.7984ZM19.4999 17.25C18.7752 16.0059 17.9999 13.1297 17.9999 9.75C17.9999 8.1587 17.3678 6.63258 16.2426 5.50736C15.1174 4.38214 13.5912 3.75 11.9999 3.75C10.4086 3.75 8.88251 4.38214 7.75729 5.50736C6.63207 6.63258 5.99993 8.1587 5.99993 9.75C5.99993 13.1306 5.22368 16.0069 4.49993 17.25H19.4999Z" fill="white"/>
</svg>
