<svg width="32" height="32" viewBox="0 0 32 32" fill="none" xmlns="http://www.w3.org/2000/svg">
<circle cx="16" cy="16" r="16" fill="#262626"/>
<path d="M16 5C22.0751 5 27 9.92487 27 16C27 22.0751 22.0751 27 16 27C9.92487 27 5 22.0751 5 16C5 9.92487 9.92487 5 16 5ZM16 14.998L12.002 11L11.002 12L15 15.998L11 19.999L12 21L16 16.998L20.002 21L21.002 20L17 15.998L21 11.999L20 10.999L16 14.998Z" fill="#464646" fill-opacity="0.4"/>
<path d="M16 5C22.0751 5 27 9.92487 27 16C27 22.0751 22.0751 27 16 27C9.92487 27 5 22.0751 5 16C5 9.92487 9.92487 5 16 5ZM16 14.998L12.002 11L11.002 12L15 15.998L11 19.999L12 21L16 16.998L20.002 21L21.002 20L17 15.998L21 11.999L20 10.999L16 14.998Z" fill="#E94B42"/>
</svg>
