<svg width="26" height="26" viewBox="0 0 26 26" fill="none" xmlns="http://www.w3.org/2000/svg">
<path d="M23.1562 13C23.1562 13.3232 23.0278 13.6332 22.7993 13.8618C22.5707 14.0903 22.2607 14.2188 21.9375 14.2188H8.30966C7.98643 14.2188 7.67643 14.0903 7.44787 13.8618C7.21931 13.6332 7.09091 13.3232 7.09091 13C7.09091 12.6768 7.21931 12.3668 7.44787 12.1382C7.67643 11.9097 7.98643 11.7812 8.30966 11.7812H21.9375C22.2607 11.7812 22.5707 11.9097 22.7993 12.1382C23.0278 12.3668 23.1562 12.6768 23.1562 13ZM4.0625 7.71875H21.9375C22.2607 7.71875 22.5707 7.59035 22.7993 7.36179C23.0278 7.13323 23.1562 6.82323 23.1562 6.5C23.1562 6.17677 23.0278 5.86677 22.7993 5.63821C22.5707 5.40965 22.2607 5.28125 21.9375 5.28125H4.0625C3.73927 5.28125 3.42927 5.40965 3.20071 5.63821C2.97215 5.86677 2.84375 6.17677 2.84375 6.5C2.84375 6.82323 2.97215 7.13323 3.20071 7.36179C3.42927 7.59035 3.73927 7.71875 4.0625 7.71875ZM21.9375 18.2812H4.0625C3.73927 18.2812 3.42927 18.4097 3.20071 18.6382C2.97215 18.8668 2.84375 19.1768 2.84375 19.5C2.84375 19.8232 2.97215 20.1332 3.20071 20.3618C3.42927 20.5903 3.73927 20.7187 4.0625 20.7187H21.9375C22.2607 20.7187 22.5707 20.5903 22.7993 20.3618C23.0278 20.1332 23.1562 19.8232 23.1562 19.5C23.1562 19.1768 23.0278 18.8668 22.7993 18.6382C22.5707 18.4097 22.2607 18.2812 21.9375 18.2812Z" fill="#F4F4F4"/>
</svg>
