<svg width="16" height="16" viewBox="0 0 16 16" fill="none" xmlns="http://www.w3.org/2000/svg">
<g clip-path="url(#clip0_1427_1335)">
<rect x="0.5" y="0.5" width="15" height="15" rx="7.5" fill="white" fill-opacity="0.2" stroke="white"/>
<path d="M11.9927 7.17881C11.9927 7.1824 11.9927 7.18566 11.9902 7.18925L11.1801 10.5761C11.1551 10.6954 11.0854 10.803 10.9829 10.8803C10.8804 10.9577 10.7515 11 10.6185 11H5.38291C5.24997 11 5.12119 10.9576 5.01877 10.8802C4.91634 10.8029 4.84667 10.6953 4.82174 10.5761L4.01159 7.18925C4.01159 7.18566 4.0098 7.1824 4.00909 7.17881C3.98692 7.06668 4.00557 6.951 4.0622 6.84945C4.11884 6.74791 4.21033 6.66608 4.32271 6.61647C4.43509 6.56686 4.56217 6.5522 4.68453 6.57473C4.8069 6.59726 4.91782 6.65574 5.00034 6.74123L6.20306 7.92453L7.48187 5.30653C7.48193 5.30544 7.48193 5.30436 7.48187 5.30327C7.5276 5.21274 7.60079 5.13606 7.69277 5.08231C7.78475 5.02856 7.89168 5 8.00089 5C8.11011 5 8.21704 5.02856 8.30902 5.08231C8.401 5.13606 8.47419 5.21274 8.51992 5.30327C8.51986 5.30436 8.51986 5.30544 8.51992 5.30653L9.79873 7.92453L11.0014 6.74123C11.0841 6.65637 11.1949 6.59847 11.317 6.57631C11.439 6.55415 11.5656 6.56894 11.6776 6.61845C11.7896 6.66795 11.8808 6.74946 11.9374 6.8506C11.994 6.95173 12.0129 7.06697 11.9913 7.17881H11.9927Z" fill="white"/>
</g>
<defs>
<clipPath id="clip0_1427_1335">
<rect width="16" height="16" fill="white"/>
</clipPath>
</defs>
</svg>
