<svg width="16" height="16" viewBox="0 0 16 16" fill="none" xmlns="http://www.w3.org/2000/svg">
<path opacity="0.2" d="M12 7C12 7.98891 11.7068 8.95561 11.1573 9.77785C10.6079 10.6001 9.82705 11.241 8.91342 11.6194C7.99979 11.9978 6.99446 12.0969 6.02455 11.9039C5.05465 11.711 4.16373 11.2348 3.46447 10.5355C2.76521 9.83627 2.289 8.94536 2.09608 7.97545C1.90315 7.00555 2.00217 6.00021 2.3806 5.08658C2.75904 4.17295 3.39991 3.39206 4.22215 2.84265C5.0444 2.29324 6.0111 2 7 2C7.65661 2 8.30679 2.12933 8.91342 2.3806C9.52005 2.63188 10.0712 3.00017 10.5355 3.46447C10.9998 3.92876 11.3681 4.47995 11.6194 5.08658C11.8707 5.69321 12 6.34339 12 7Z" fill="#F9F9F9"/>
<path d="M14.3547 13.6461L11.226 10.5173C12.1346 9.4276 12.5881 8.02951 12.4921 6.61392C12.3962 5.19833 11.7582 3.87423 10.7108 2.91707C9.66345 1.95992 8.28739 1.44341 6.8689 1.475C5.45041 1.50659 4.09871 2.08384 3.095 3.08667C2.09128 4.0895 1.51284 5.44069 1.47999 6.85915C1.44715 8.27761 1.96244 9.65412 2.91867 10.7023C3.8749 11.7505 5.19844 12.3897 6.61394 12.4869C8.02945 12.5841 9.42794 12.1319 10.5185 11.2242L13.6472 14.3536C13.6937 14.4 13.7488 14.4369 13.8095 14.462C13.8702 14.4872 13.9353 14.5001 14.001 14.5001C14.0667 14.5001 14.1317 14.4872 14.1924 14.462C14.2531 14.4369 14.3083 14.4 14.3547 14.3536C14.4012 14.3071 14.438 14.252 14.4632 14.1913C14.4883 14.1306 14.5013 14.0655 14.5013 13.9998C14.5013 13.9341 14.4883 13.8691 14.4632 13.8084C14.438 13.7477 14.4012 13.6925 14.3547 13.6461ZM2.50098 6.99984C2.50098 6.10982 2.7649 5.23979 3.25936 4.49977C3.75383 3.75975 4.45663 3.18297 5.2789 2.84238C6.10117 2.50178 7.00597 2.41267 7.87888 2.5863C8.7518 2.75994 9.55362 3.18852 10.183 3.81786C10.8123 4.44719 11.2409 5.24902 11.4145 6.12193C11.5881 6.99484 11.499 7.89964 11.1584 8.72191C10.8178 9.54418 10.2411 10.247 9.50104 10.7414C8.76102 11.2359 7.89099 11.4998 7.00098 11.4998C5.80791 11.4985 4.66408 11.024 3.82046 10.1804C2.97683 9.33673 2.5023 8.1929 2.50098 6.99984Z" fill="#F9F9F9"/>
</svg>
