<svg width="32" height="32" viewBox="0 0 32 32" fill="none" xmlns="http://www.w3.org/2000/svg">
<circle cx="16" cy="16" r="16" fill="#262626"/>
<path d="M16 5C22.0751 5 27 9.92487 27 16C27 22.0751 22.0751 27 16 27C9.92487 27 5 22.0751 5 16C5 9.92487 9.92487 5 16 5ZM14 19L11 16L10 17L14 21L22 13L21 12L14 19Z" fill="#464646" fill-opacity="0.4"/>
<path d="M16 5C22.0751 5 27 9.92487 27 16C27 22.0751 22.0751 27 16 27C9.92487 27 5 22.0751 5 16C5 9.92487 9.92487 5 16 5ZM14 19L11 16L10 17L14 21L22 13L21 12L14 19Z" fill="#07DF7C"/>
</svg>
