<svg width="35" height="35" viewBox="0 0 35 35" fill="none" xmlns="http://www.w3.org/2000/svg">
<path d="M29.6483 6.16555C27.3827 5.10553 24.9602 4.33515 22.4276 3.89648C22.1165 4.45883 21.7531 5.2152 21.5026 5.8169C18.8103 5.41201 16.1428 5.41201 13.5 5.8169C13.2495 5.2152 12.8779 4.45883 12.5641 3.89648C10.0287 4.33515 7.60339 5.10836 5.33778 6.17116C0.768021 13.0767 -0.470766 19.8107 0.148628 26.449C3.17953 28.7124 6.11685 30.0874 9.00459 30.9871C9.71759 30.0058 10.3535 28.9627 10.9013 27.8633C9.85797 27.4669 8.85869 26.9776 7.91448 26.4097C8.16498 26.2241 8.41 26.0301 8.64672 25.8304C14.4057 28.5241 20.663 28.5241 26.3532 25.8304C26.5927 26.0301 26.8376 26.2241 27.0854 26.4097C26.1384 26.9804 25.1364 27.4697 24.0931 27.8661C24.6409 28.9627 25.274 30.0086 25.9898 30.9899C28.8803 30.0902 31.8203 28.7153 34.8512 26.449C35.578 18.7535 33.6097 12.0813 29.6483 6.16555ZM11.6859 22.3665C9.95709 22.3665 8.53935 20.7526 8.53935 18.7872C8.53935 16.8218 9.92682 15.2051 11.6859 15.2051C13.445 15.2051 14.8627 16.819 14.8324 18.7872C14.8351 20.7526 13.445 22.3665 11.6859 22.3665ZM23.314 22.3665C21.5852 22.3665 20.1675 20.7526 20.1675 18.7872C20.1675 16.8218 21.5549 15.2051 23.314 15.2051C25.0731 15.2051 26.4908 16.819 26.4605 18.7872C26.4605 20.7526 25.0731 22.3665 23.314 22.3665Z" fill="white"/>
</svg>
