<?xml version="1.0" encoding="UTF-8"?>
<svg id="Calque_2" data-name="Calque 2" xmlns="http://www.w3.org/2000/svg" viewBox="0 0 146.07 86.42">
  <defs>
    <style>
      .cls-1 {
        fill: #232323;
      }

      .cls-2 {
        fill: #f4f4f4;
      }
    </style>
  </defs>
  <g id="Calque_1-2" data-name="Calque 1">
    <g>
      <path class="cls-2" d="M146.07,43.21c0,23.83-19.38,43.22-43.21,43.22-11.34,0-21.91-4.32-29.84-11.92-7.9,7.55-18.49,11.92-29.81,11.92h-.1C19.28,86.37-.06,66.94,0,43.11.06,19.34,19.44,0,43.21,0h.1c11.3.03,21.85,4.4,29.73,11.92,7.93-7.59,18.5-11.92,29.83-11.92,23.83,0,43.21,19.39,43.21,43.21Z"/>
      <g>
        <path class="cls-1" d="M102.86,10.44c-11.82,0-22.18,6.25-27.95,15.64,2.87,5.06,4.51,10.91,4.51,17.13s-1.64,12.07-4.51,17.13c5.76,9.38,16.13,15.65,27.95,15.65,18.1,0,32.77-14.68,32.77-32.78s-14.67-32.77-32.77-32.77ZM102.86,68.55c-6.34,0-12.14-2.34-16.59-6.2-1.15-1-1.19-2.78-.11-3.87l31.97-31.97c1.08-1.08,2.86-1.04,3.86.12,3.86,4.45,6.21,10.24,6.21,16.58,0,13.98-11.37,25.34-25.34,25.34Z"/>
        <path class="cls-1" d="M72.39,28.27c-5.42-10.57-16.41-17.8-29.11-17.83-18.1-.04-32.81,14.6-32.85,32.7-.04,18.1,14.6,32.81,32.7,32.85,12.7.03,23.72-7.17,29.19-17.71,2.33-4.49,3.65-9.59,3.66-15s-1.28-10.51-3.59-15.01ZM46.07,68.39c-1.56.18-2.92-1.08-2.92-2.64l.1-45.07c0-1.57,1.37-2.81,2.93-2.64,12.6,1.48,22.39,12.24,22.36,25.22-.03,12.99-9.87,23.7-22.47,25.13Z"/>
      </g>
    </g>
  </g>
</svg>