<svg width="151" height="48" viewBox="0 0 151 48" fill="none" xmlns="http://www.w3.org/2000/svg">
<path d="M46.6797 16.3029C46.274 16.3687 45.9883 16.8033 45.9883 17.2773V19.8321C45.9883 20.1086 46.0683 20.3457 46.234 20.5366C46.3997 20.7275 46.6054 20.8263 46.8454 20.8263C47.0853 20.8263 47.291 20.7341 47.4567 20.5366C47.6224 20.3457 47.7024 20.1086 47.7024 19.8321V17.2773C47.7024 17.0008 47.6167 16.7638 47.4567 16.5728C47.2568 16.3424 46.9939 16.2502 46.6797 16.3029Z" fill="#F4F4F4"/>
<path d="M144.905 0H135.083C134.431 0 133.791 0.125103 133.186 0.355556C132.591 0.125103 131.957 0 131.3 0H117.147C116.507 0 115.89 0.125103 115.307 0.348971C114.707 0.125103 114.084 0 113.439 0H102.348C101.702 0 101.074 0.125103 100.485 0.342387C99.8967 0.125103 99.2682 0 98.6225 0H88.949C88.309 0 87.6919 0.125103 87.1091 0.342387C86.5149 0.118519 85.8863 0 85.2521 0H61.671C59.9683 0 58.4313 0.823045 57.3399 2.13992C56.9685 1.91605 56.5914 1.69877 56.2029 1.50782C54.2316 0.51358 52.1003 0.00658436 49.8776 0.00658436H35.9415C35.313 0.00658436 34.7074 0.125103 34.136 0.335802C33.5532 0.118519 32.9418 0.00658436 32.3247 0.00658436H5.93812C4.22397 0.00658436 2.59552 0.862551 1.46989 2.34403C0.344265 3.82551 -0.175694 5.80082 0.0528605 7.74979L0.652812 12.9712L1.46989 17.0206C1.46989 17.0206 1.78725 19.4543 2.78979 20.5893C3.79233 21.7243 5.34389 22.5778 6.96091 22.5778H7.82369V41.1523C7.82369 44.9251 10.4863 48 13.7661 48H24.5081C26.6623 48 28.5421 46.67 29.582 44.6881C30.6391 46.67 32.5304 48 34.6959 48H45.3123C45.9579 48 46.5865 47.8815 47.1693 47.6642C47.7521 47.8815 48.3749 48 49.0263 48H59.6883C60.3283 48 60.9454 47.8815 61.5225 47.6642C62.0996 47.8815 62.7167 48 63.3566 48H84.2522C85.5949 48 86.852 47.4798 87.8691 46.5975C88.8804 47.4798 90.1374 48 91.4802 48H109.513C110.616 48 111.656 47.6444 112.559 47.0321C113.45 47.6379 114.49 48 115.598 48H125.42C126.066 48 126.7 47.8815 127.295 47.651C127.883 47.8749 128.512 48 129.163 48H144.916C148.23 48 150.921 44.8922 150.921 41.0798V6.92016C150.921 3.10782 148.23 0 144.916 0H144.905ZM33.256 6.98601L32.239 15.8749C32.1761 16.4082 31.7819 16.8099 31.3133 16.8099H25.668C25.5195 16.8099 25.4395 16.8823 25.4395 17.0206V41.1523C25.4395 41.7449 25.0224 42.2255 24.5081 42.2255H13.7661C13.2518 42.2255 12.8347 41.7449 12.8347 41.1523V17.0206C12.8347 16.8823 12.7605 16.8099 12.6062 16.8099H6.96091C6.49237 16.8099 6.09811 16.4082 6.03526 15.8749L5.01819 6.98601C4.94391 6.34074 5.37816 5.7679 5.94384 5.7679H32.3361C32.9018 5.7679 33.336 6.34074 33.2618 6.98601H33.256ZM58.6484 26.6535C59.3112 27.279 59.814 28.023 60.1626 28.8922C60.5111 29.7613 60.6825 30.6963 60.6825 31.7037V41.0733C60.6825 41.7054 60.2368 42.2189 59.6883 42.2189H49.0263C48.4777 42.2189 48.0321 41.7054 48.0321 41.0733V32.2765C48.0321 32 47.9464 31.763 47.7806 31.572C47.6149 31.3811 47.4093 31.2889 47.1693 31.2889C46.9293 31.2889 46.7236 31.3877 46.5579 31.572C46.3922 31.763 46.3122 32 46.3122 32.2765V41.0733C46.3122 41.7054 45.8665 42.2189 45.318 42.2189H34.7016C34.1531 42.2189 33.7074 41.7054 33.7074 41.0733V17.8436C33.7074 17.7909 33.7074 17.7449 33.7189 17.6922L33.7931 17.0469L34.9702 6.76872C35.033 6.19588 35.4559 5.7679 35.9587 5.7679H49.8891C51.4261 5.7679 52.866 6.1037 54.203 6.78189C55.5458 7.46008 56.7114 8.36872 57.7056 9.5144C58.6998 10.6601 59.4883 12.0033 60.0769 13.5506C60.6654 15.0979 60.9568 16.7506 60.9568 18.5218C60.9568 21.4058 60.174 24.0066 58.6084 26.3309C58.5455 26.4362 58.5627 26.5416 58.6541 26.6403L58.6484 26.6535ZM86.2349 32.4872L85.2349 41.2247C85.1721 41.7975 84.7436 42.2255 84.2465 42.2255H63.3509C62.8024 42.2255 62.351 41.7119 62.351 41.0733V31.7235C62.351 30.4461 62.1224 29.228 61.6767 28.1086C61.5053 27.6741 61.2996 27.2658 61.0711 26.8774C61.0482 26.4362 61.0311 26.1004 61.0139 25.6527C62.0824 23.4732 62.6252 21.0897 62.6252 18.5416C62.6252 16.5136 62.2824 14.5778 61.6025 12.7934C61.3339 12.0823 61.0196 11.4107 60.6711 10.772V6.91358C60.6711 6.28148 61.1168 5.76132 61.671 5.76132H85.2521C85.8578 5.76132 86.3206 6.37366 86.2406 7.06502L85.2407 15.8091C85.1778 16.3819 84.7493 16.8099 84.2522 16.8099H74.1444C73.9044 16.8099 73.6987 16.9086 73.533 17.093C73.3673 17.2839 73.2873 17.521 73.2873 17.7975C73.2873 18.0741 73.3673 18.3111 73.533 18.5021C73.6987 18.693 73.9044 18.7852 74.1444 18.7852H82.2695C82.8751 18.7852 83.338 19.3975 83.258 20.0889L82.3095 28.2074C82.2409 28.7802 81.8181 29.2016 81.321 29.2016H74.1501C73.9101 29.2016 73.7044 29.3004 73.5387 29.4848C73.373 29.6757 73.293 29.9128 73.293 30.1893C73.293 30.4658 73.373 30.7029 73.5387 30.8938C73.7044 31.0848 73.9101 31.1835 74.1501 31.1835H85.2578C85.8635 31.1835 86.3263 31.7959 86.2463 32.4872H86.2349ZM114.438 7.08477L110.502 41.2247C110.433 41.7975 110.01 42.2321 109.507 42.2321H91.4745C90.9717 42.2321 90.5431 41.8041 90.4803 41.2247L87.252 13.2477C87.2405 13.149 87.2405 13.0436 87.252 12.9449L87.9605 6.78189C88.029 6.20247 88.4518 5.77449 88.9604 5.77449H98.6339C99.1882 5.77449 99.6396 6.29465 99.6396 6.93333V30.4593C99.6396 30.7358 99.7196 30.9728 99.891 31.1638C100.091 31.3942 100.354 31.4864 100.668 31.4337C101.074 31.3679 101.359 30.9333 101.359 30.4593V6.92675C101.359 6.28807 101.811 5.7679 102.365 5.7679H113.456C114.061 5.7679 114.53 6.38683 114.45 7.07819L114.438 7.08477ZM145.91 41.0733C145.91 41.7119 145.465 42.2255 144.91 42.2255H129.157C128.66 42.2255 128.237 41.8041 128.169 41.2313L126.032 23.5786C126.003 23.1967 125.883 22.9333 125.672 22.7951C125.5 22.6831 125.335 22.6305 125.163 22.6305C125.123 22.6305 125.078 22.6305 125.038 22.6436C124.826 22.6765 124.643 22.8016 124.495 23.0058C124.346 23.2165 124.283 23.493 124.312 23.842L126.409 40.9086C126.495 41.6 126.026 42.2255 125.42 42.2255H115.598C115.044 42.2255 114.598 41.7119 114.598 41.0733V20.4444C114.598 20.3918 114.598 20.3457 114.61 20.293L116.17 6.76872C116.238 6.19588 116.661 5.7679 117.164 5.7679H131.317C131.814 5.7679 132.237 6.1893 132.306 6.76214L134.488 24.5728C134.517 24.8165 134.631 25.0337 134.825 25.2247C134.968 25.363 135.123 25.4354 135.294 25.4354C135.357 25.4354 135.42 25.4288 135.483 25.4091C135.723 25.3432 135.911 25.2115 136.048 25.0206C136.185 24.8296 136.237 24.5926 136.208 24.316L134.111 7.09136C134.026 6.4 134.494 5.77449 135.1 5.77449H144.922C145.476 5.77449 145.922 6.28807 145.922 6.92675V41.0733H145.91Z" fill="#F4F4F4"/>
</svg>
