<?xml version="1.0" encoding="UTF-8"?>
<svg id="Calque_2" data-name="Calque 2" xmlns="http://www.w3.org/2000/svg" viewBox="0 0 378.37 72.3">
  <defs>
    <style>
      .cls-1 {
        fill: #232323;
      }

      .cls-2 {
        fill: #f4f4f4;
      }
    </style>
  </defs>
  <g id="Calque_1-2" data-name="Calque 1">
    <g>
      <path class="cls-2" d="M378.37,10.43v51.44c0,5.75-4.67,10.43-10.43,10.43h-27.34c-1.12,0-2.21-.19-3.24-.52-1.04.34-2.14.52-3.26.52h-17.05c-1.93,0-3.73-.54-5.28-1.45-1.56.92-3.37,1.45-5.28,1.45h-31.31c-2.33,0-4.51-.79-6.27-2.11-1.76,1.33-3.94,2.11-6.27,2.11h-36.27c-1.11,0-2.18-.18-3.18-.5-1,.32-2.07.5-3.18.5h-18.5c-1.12,0-2.21-.18-3.22-.51-1.01.33-2.1.51-3.22.51h-18.43c-3.75,0-7.04-2-8.87-4.99-1.81,2.98-5.07,4.99-8.81,4.99h-18.65c-5.69,0-10.31-4.63-10.31-10.31v-27.97h-1.5c-2.8,0-5.36-1.14-7.24-2.99.24,1.68.37,3.39.37,5.13,0,19.85-16.14,35.99-35.98,35.99-9.45,0-18.25-3.6-24.85-9.92-6.58,6.29-15.4,9.92-24.83,9.92h-.08c-9.62-.02-18.64-3.78-25.42-10.6C3.7,54.72-.02,45.67,0,36.06.04,16.27,16.18.17,35.97.17h.09c9.41.02,18.19,3.66,24.75,9.92C67.41,3.77,76.21.17,85.65.17c13.85,0,25.88,7.87,31.9,19.36l-1.04-7.87c-.39-2.94.51-5.91,2.46-8.14,1.96-2.23,4.78-3.52,7.76-3.52h45.8c1.08,0,2.14.17,3.15.5,1-.32,2.04-.5,3.13-.5h24.19c3.86,0,7.55.76,10.98,2.26.67.3,1.33.61,1.97.96,1.89-1.98,4.56-3.22,7.51-3.22h40.93c1.11,0,2.2.18,3.23.52,1.01-.32,2.09-.52,3.2-.52h16.79c1.13,0,2.22.19,3.24.52,1.02-.33,2.11-.52,3.23-.52h19.25c1.11,0,2.2.18,3.24.52,1.01-.33,2.09-.52,3.2-.52h24.56c1.14,0,2.24.19,3.27.54,1.05-.35,2.16-.54,3.3-.54h17.05c5.75,0,10.43,4.68,10.43,10.43Z"/>
      <g>
        <path class="cls-1" d="M315.32,30.8v31.07c0,.96.78,1.74,1.74,1.74h17.05c1.06,0,1.87-.93,1.72-1.98l-3.64-25.71c-.05-.52.05-.94.31-1.26.26-.31.57-.5.94-.55.07-.01.14-.02.22-.02.29,0,.59.08.88.25.36.21.57.6.63,1.18l3.71,26.59c.12.86.85,1.5,1.72,1.5h27.35c.96,0,1.74-.78,1.74-1.74V10.43c0-.96-.78-1.74-1.74-1.74h-17.05c-1.06,0-1.87.93-1.72,1.98l3.64,25.95c.05.42-.04.77-.27,1.06-.23.29-.56.48-.98.59-.11.03-.22.04-.33.04-.29,0-.56-.11-.81-.32-.34-.29-.54-.61-.59-.98l-3.79-26.82c-.12-.86-.85-1.49-1.72-1.49h-24.56c-.87,0-1.61.65-1.72,1.51l-2.71,20.37c-.01.08-.02.15-.02.23Z"/>
        <path class="cls-1" d="M267.86,19.95l5.6,42.14c.12.87.86,1.52,1.73,1.52h31.3c.88,0,1.62-.65,1.73-1.52l6.83-51.42c.14-1.05-.68-1.98-1.73-1.98h-19.25c-.96,0-1.75.78-1.75,1.75v35.44c0,.71-.5,1.36-1.2,1.46-.55.08-1-.06-1.35-.41-.29-.29-.43-.64-.43-1.06V10.44c0-.96-.78-1.75-1.75-1.75h-16.79c-.88,0-1.62.65-1.73,1.52l-1.23,9.28c-.02.15-.02.31,0,.46Z"/>
        <path class="cls-1" d="M225.12,27.94c0,3.84-.94,7.43-2.8,10.71l.1,1.84c.4.58.76,1.2,1.06,1.85.77,1.69,1.17,3.52,1.17,5.44v14.09c0,.96.78,1.73,1.73,1.73h36.27c.87,0,1.6-.64,1.72-1.51l1.74-13.17c.14-1.04-.67-1.96-1.72-1.96h-19.28c-.42,0-.77-.14-1.06-.43-.29-.29-.43-.64-.43-1.06s.14-.77.43-1.06c.29-.29.64-.43,1.06-.43h12.45c.87,0,1.6-.64,1.72-1.5l1.65-12.22c.14-1.04-.67-1.96-1.72-1.96h-14.1c-.42,0-.77-.14-1.06-.43-.29-.29-.43-.64-.43-1.06s.14-.77.43-1.06c.29-.29.64-.43,1.06-.43h17.54c.87,0,1.6-.64,1.72-1.51l1.74-13.17c.14-1.04-.67-1.96-1.72-1.96h-40.93c-.96,0-1.73.78-1.73,1.73v5.81h0c.6.96,1.15,1.98,1.61,3.05,1.18,2.69,1.77,5.6,1.77,8.65Z"/>
        <path class="cls-1" d="M175.06,25.67l-.13.97c0,.08-.01.15-.01.23v35c0,.96.77,1.73,1.73,1.73h18.43c.96,0,1.73-.77,1.73-1.73v-13.25c0-.42.14-.77.43-1.06.29-.29.64-.43,1.06-.43s.77.14,1.06.43c.29.29.43.64.43,1.06v13.25c0,.96.77,1.73,1.73,1.73h18.5c.96,0,1.73-.77,1.73-1.73v-14.12c0-1.52-.3-2.93-.9-4.24-.6-1.31-1.48-2.43-2.63-3.37-.16-.16-.18-.31-.08-.47,2.72-3.5,4.08-7.43,4.08-11.77,0-2.67-.51-5.16-1.53-7.49-1.02-2.33-2.39-4.35-4.12-6.08-1.73-1.73-3.75-3.1-6.08-4.12-2.33-1.02-4.82-1.53-7.49-1.53h-24.18c-.87,0-1.6.64-1.72,1.5l-2.04,15.48ZM196.25,26.03c0-.71.5-1.37,1.2-1.47.55-.08.99.06,1.35.41.29.29.43.64.43,1.06v3.84c0,.42-.14.77-.43,1.06-.29.29-.64.43-1.06.43s-.77-.14-1.06-.43c-.29-.29-.43-.64-.43-1.06v-3.85Z"/>
        <path class="cls-1" d="M172.37,23.92l1.77-13.39c.13-.97-.63-1.83-1.6-1.83h-45.81c-.98,0-1.73.86-1.6,1.83l1.77,13.39c.11.81.79,1.41,1.6,1.41h9.8c.26,0,.39.11.39.31v36.35c0,.89.72,1.62,1.62,1.62h18.65c.89,0,1.62-.72,1.62-1.62V25.64c0-.21.13-.31.39-.31h9.8c.81,0,1.5-.6,1.6-1.41Z"/>
        <path class="cls-1" d="M85.65,8.85c-9.84,0-18.47,5.21-23.28,13.02,2.39,4.22,3.76,9.08,3.76,14.27s-1.37,10.05-3.75,14.27c4.8,7.81,13.43,13.03,23.27,13.03,15.07,0,27.29-12.22,27.29-27.3s-12.22-27.29-27.29-27.29ZM85.65,57.25c-5.28,0-10.11-1.95-13.82-5.16-.96-.83-.99-2.32-.09-3.22l26.62-26.62c.9-.9,2.38-.86,3.22.1,3.22,3.7,5.17,8.53,5.17,13.8,0,11.64-9.47,21.1-21.1,21.1Z"/>
        <path class="cls-1" d="M60.28,23.7c-4.52-8.8-13.67-14.83-24.24-14.85-15.07-.03-27.32,12.16-27.35,27.23-.03,15.07,12.16,27.32,27.23,27.36,10.57.02,19.75-5.97,24.31-14.75,1.94-3.74,3.04-7.99,3.05-12.49s-1.07-8.76-2.99-12.5ZM38.36,57.12c-1.3.15-2.43-.9-2.43-2.2l.09-37.53c0-1.31,1.14-2.34,2.44-2.2,10.49,1.23,18.64,10.19,18.62,21-.02,10.82-8.22,19.74-18.71,20.92Z"/>
      </g>
    </g>
  </g>
</svg>