<?xml version="1.0" encoding="UTF-8"?>
<svg id="Calque_2" data-name="Calque 2" xmlns="http://www.w3.org/2000/svg" viewBox="0 0 155.2 91.83">
  <defs>
    <style>
      .cls-1 {
        fill: #f4f4f4;
      }
    </style>
  </defs>
  <g id="Anchors">
    <g>
      <path class="cls-1" d="M49.07,19.17c-1.66-.19-3.11,1.13-3.11,2.8l-.11,47.88c0,1.66,1.44,3,3.1,2.81,13.39-1.51,23.85-12.9,23.88-26.7.03-13.79-10.37-25.22-23.75-26.8Z"/>
      <path class="cls-1" d="M129.62,28.3c-1.06-1.23-2.96-1.27-4.1-.13l-33.97,33.97c-1.15,1.15-1.11,3.05.12,4.11,4.73,4.1,10.9,6.59,17.63,6.59,14.84,0,26.92-12.08,26.92-26.93,0-6.73-2.49-12.89-6.59-17.61Z"/>
      <path class="cls-1" d="M109.29,0c-12.04,0-23.27,4.6-31.7,12.66C69.23,4.67,58.02.03,46.01,0h-.1C20.65,0,.06,20.55,0,45.81c-.06,25.32,20.49,45.97,45.81,46.02h.11c12.03,0,23.28-4.64,31.67-12.66,8.42,8.07,19.65,12.66,31.7,12.66,25.32,0,45.91-20.59,45.91-45.92C155.2,20.6,134.61,0,109.29,0ZM76.84,61.92c-5.81,11.2-17.52,18.85-31.01,18.82-19.23-.04-34.79-15.68-34.74-34.91.04-19.23,15.67-34.79,34.9-34.74,13.49.03,25.17,7.72,30.93,18.95,2.45,4.78,3.83,10.21,3.81,15.95-.01,5.74-1.42,11.17-3.89,15.93ZM109.29,80.74c-12.56,0-23.57-6.65-29.69-16.62,3.05-5.38,4.79-11.59,4.79-18.21,0-6.62-1.74-12.82-4.8-18.21,6.14-9.97,17.14-16.62,29.7-16.62,19.23,0,34.82,15.59,34.82,34.82,0,19.23-15.59,34.83-34.82,34.83Z"/>
    </g>
  </g>
</svg>