<?xml version="1.0" encoding="UTF-8"?>
<svg id="Calque_2" data-name="Calque 2" xmlns="http://www.w3.org/2000/svg" viewBox="0 0 381.51 72.9">
  <defs>
    <style>
      .cls-1 {
        fill: #f4f4f4;
      }
    </style>
  </defs>
  <g id="Anchors">
    <g>
      <path class="cls-1" d="M199.09,24.76c-.71.1-1.21.76-1.21,1.48v3.88c0,.42.14.78.43,1.07.29.29.65.44,1.07.44s.78-.14,1.07-.44c.29-.29.43-.65.43-1.07v-3.88c0-.42-.15-.78-.43-1.07-.35-.35-.81-.49-1.36-.41Z"/>
      <path class="cls-1" d="M99.18,22.43l-26.85,26.85c-.91.91-.88,2.41.09,3.25,3.74,3.24,8.61,5.2,13.93,5.2,11.73,0,21.27-9.54,21.27-21.28,0-5.32-1.97-10.19-5.21-13.92-.84-.97-2.34-1-3.24-.1Z"/>
      <path class="cls-1" d="M38.78,15.32c-1.31-.15-2.46.89-2.46,2.21l-.09,37.84c0,1.31,1.14,2.37,2.45,2.22,10.58-1.2,18.84-10.19,18.87-21.1.02-10.9-8.2-19.93-18.77-21.18Z"/>
      <path class="cls-1" d="M370.99,0h-17.19c-1.14,0-2.26.19-3.32.54-1.04-.35-2.15-.54-3.3-.54h-24.77c-1.12,0-2.2.19-3.22.53-1.05-.34-2.14-.53-3.27-.53h-19.41c-1.13,0-2.23.19-3.26.52-1.03-.33-2.13-.52-3.26-.52h-16.93c-1.12,0-2.2.19-3.22.52-1.04-.34-2.14-.52-3.25-.52h-41.27c-2.98,0-5.67,1.25-7.58,3.25-.65-.34-1.31-.67-1.99-.96-3.45-1.51-7.18-2.28-11.07-2.28h-24.39c-1.1,0-2.16.18-3.16.5-1.02-.33-2.09-.5-3.17-.5h-46.18c-3,0-5.85,1.3-7.82,3.55-1.97,2.25-2.88,5.25-2.48,8.21l1.05,7.93C112.46,8.1,100.33.17,86.37.17c-9.52,0-18.39,3.63-25.05,10C54.7,3.86,45.85.19,36.36.17h-.09C16.31.17.04,16.4,0,36.36c-.02,9.69,3.73,18.81,10.57,25.68,6.83,6.87,15.93,10.67,25.63,10.68h.08c9.5,0,18.4-3.67,25.03-10.01,6.65,6.38,15.53,10.01,25.05,10.01,20,0,36.28-16.27,36.28-36.28,0-1.75-.13-3.48-.37-5.17,1.89,1.87,4.47,3.02,7.3,3.02h1.51v28.21c0,5.73,4.66,10.4,10.4,10.4h18.8c3.77,0,7.06-2.02,8.88-5.03,1.85,3.01,5.16,5.03,8.95,5.03h18.58c1.13,0,2.23-.18,3.25-.51,1.02.33,2.11.51,3.25.51h18.66c1.12,0,2.2-.18,3.21-.51,1.01.33,2.09.51,3.21.51h36.57c2.35,0,4.55-.79,6.33-2.13,1.77,1.34,3.97,2.13,6.32,2.13h31.56c1.93,0,3.75-.54,5.33-1.47,1.56.92,3.38,1.47,5.32,1.47h17.19c1.13,0,2.24-.18,3.28-.53,1.03.34,2.13.53,3.27.53h27.57c5.8,0,10.51-4.72,10.51-10.51V10.51c0-5.79-4.71-10.51-10.51-10.51ZM60.72,49.1c-4.59,8.85-13.85,14.89-24.51,14.87-15.2-.03-27.49-12.39-27.45-27.59.03-15.2,12.38-27.49,27.58-27.45,10.66.02,19.89,6.1,24.44,14.97,1.94,3.78,3.02,8.07,3.01,12.61-.01,4.54-1.12,8.82-3.07,12.59ZM86.36,63.97c-9.92,0-18.63-5.26-23.46-13.14,2.41-4.25,3.79-9.16,3.79-14.39s-1.38-10.13-3.79-14.39c4.85-7.88,13.55-13.13,23.47-13.13,15.2,0,27.52,12.32,27.52,27.52s-12.32,27.52-27.52,27.52ZM175.59,10.61l-1.78,13.5c-.11.81-.8,1.42-1.62,1.42h-9.88c-.26,0-.4.11-.4.32v36.65c0,.9-.73,1.63-1.63,1.63h-18.8c-.9,0-1.63-.73-1.63-1.63V25.85c0-.21-.13-.32-.4-.32h-9.88c-.82,0-1.51-.61-1.62-1.42l-1.78-13.5c-.13-.98.63-1.85,1.62-1.85h46.19c.99,0,1.75.87,1.62,1.85ZM220.03,40.48c1.16.95,2.04,2.08,2.65,3.4.61,1.32.91,2.74.91,4.27v14.23c0,.96-.78,1.74-1.74,1.74h-18.66c-.96,0-1.74-.78-1.74-1.74v-13.36c0-.42-.15-.78-.44-1.07-.29-.29-.65-.43-1.07-.43s-.78.15-1.07.43c-.29.29-.43.65-.43,1.07v13.36c0,.96-.78,1.74-1.74,1.74h-18.58c-.96,0-1.74-.78-1.74-1.74V27.1c0-.08,0-.15.02-.23l.13-.98,2.06-15.61c.11-.87.85-1.52,1.73-1.52h24.38c2.69,0,5.21.51,7.55,1.54,2.35,1.03,4.39,2.41,6.13,4.15,1.74,1.74,3.12,3.78,4.15,6.13,1.03,2.35,1.54,4.86,1.54,7.55,0,4.38-1.37,8.33-4.11,11.86-.11.16-.08.32.08.47ZM268.31,49.34l-1.75,13.27c-.11.87-.86,1.52-1.73,1.52h-36.57c-.96,0-1.75-.78-1.75-1.75v-14.2c0-1.94-.4-3.79-1.18-5.49-.3-.66-.66-1.28-1.06-1.87-.04-.67-.07-1.18-.1-1.86,1.87-3.31,2.82-6.93,2.82-10.8,0-3.08-.6-6.02-1.79-8.73-.47-1.08-1.02-2.1-1.63-3.07v-5.86c0-.96.78-1.75,1.75-1.75h41.27c1.06,0,1.87.93,1.73,1.98l-1.75,13.28c-.11.87-.86,1.52-1.73,1.52h-17.69c-.42,0-.78.15-1.07.43-.29.29-.43.65-.43,1.07s.14.78.43,1.07c.29.29.65.43,1.07.43h14.22c1.06,0,1.87.93,1.73,1.98l-1.66,12.33c-.12.87-.86,1.51-1.73,1.51h-12.55c-.42,0-.78.15-1.07.43-.29.29-.43.65-.43,1.07s.14.78.43,1.07c.29.29.65.44,1.07.44h19.44c1.06,0,1.87.93,1.73,1.98ZM317.67,10.76l-6.89,51.85c-.12.87-.86,1.53-1.74,1.53h-31.56c-.88,0-1.63-.65-1.74-1.53l-5.65-42.49c-.02-.15-.02-.31,0-.46l1.24-9.36c.12-.88.86-1.53,1.75-1.53h16.93c.97,0,1.76.79,1.76,1.76v35.73c0,.42.14.78.44,1.07.35.35.81.49,1.36.41.71-.1,1.21-.76,1.21-1.48V10.52c0-.97.79-1.76,1.76-1.76h19.41c1.06,0,1.88.94,1.74,1.99ZM372.75,62.38c0,.97-.78,1.75-1.75,1.75h-27.57c-.87,0-1.61-.64-1.73-1.51l-3.74-26.81c-.05-.58-.26-.98-.63-1.19-.3-.17-.59-.25-.89-.25-.07,0-.15,0-.22.02-.37.05-.69.24-.95.55-.26.32-.37.74-.32,1.27l3.67,25.92c.15,1.05-.67,2-1.73,2h-17.19c-.97,0-1.75-.78-1.75-1.75v-31.33c0-.08,0-.15.02-.23l2.73-20.54c.12-.87.86-1.52,1.74-1.52h24.77c.87,0,1.61.64,1.73,1.51l3.82,27.05c.05.37.25.7.59.99.25.21.52.32.82.32.11,0,.22-.01.33-.04.42-.1.75-.3.99-.59.24-.29.33-.65.28-1.07l-3.67-26.16c-.15-1.05.67-2,1.73-2h17.19c.97,0,1.75.78,1.75,1.75v51.86Z"/>
    </g>
  </g>
</svg>