<svg width="18" height="18" viewBox="0 0 18 18" fill="none" xmlns="http://www.w3.org/2000/svg">
<path d="M2.97672 12.773L5.22672 15.023C5.27896 15.0753 5.341 15.1168 5.40928 15.1451C5.47757 15.1734 5.55077 15.188 5.62469 15.188C5.69861 15.188 5.7718 15.1734 5.84009 15.1451C5.90838 15.1168 5.97041 15.0753 6.02266 15.023L8.27266 12.773C8.3782 12.6675 8.4375 12.5243 8.4375 12.375C8.4375 12.2258 8.3782 12.0826 8.27266 11.9771C8.16711 11.8715 8.02395 11.8122 7.87469 11.8122C7.72542 11.8122 7.58227 11.8715 7.47672 11.9771L6.18719 13.2673V3.37505C6.18719 3.22586 6.12792 3.08279 6.02243 2.9773C5.91694 2.87181 5.77387 2.81255 5.62469 2.81255C5.4755 2.81255 5.33243 2.87181 5.22694 2.9773C5.12145 3.08279 5.06219 3.22586 5.06219 3.37505V13.2673L3.77266 11.9771C3.66711 11.8715 3.52395 11.8122 3.37469 11.8122C3.22542 11.8122 3.08227 11.8715 2.97672 11.9771C2.87117 12.0826 2.81187 12.2258 2.81187 12.375C2.81187 12.5243 2.87117 12.6675 2.97672 12.773Z" fill="#7F7F7F"/>
<path d="M9.60462 5.84089C9.63293 5.90918 9.67442 5.97122 9.72672 6.02346C9.77896 6.07576 9.841 6.11725 9.90928 6.14555C9.97757 6.17386 10.0508 6.18843 10.1247 6.18843C10.1986 6.18843 10.2718 6.17386 10.3401 6.14555C10.4084 6.11725 10.4704 6.07576 10.5227 6.02346L11.8122 4.73322V14.6255C11.8122 14.7747 11.8715 14.9177 11.9769 15.0232C12.0824 15.1287 12.2255 15.188 12.3747 15.188C12.5239 15.188 12.6669 15.1287 12.7724 15.0232C12.8779 14.9177 12.9372 14.7747 12.9372 14.6255V4.73322L14.2267 6.02346C14.279 6.07572 14.341 6.11718 14.4093 6.14546C14.4776 6.17374 14.5508 6.1883 14.6247 6.1883C14.774 6.1883 14.9171 6.12901 15.0227 6.02346C15.0749 5.9712 15.1164 5.90915 15.1447 5.84087C15.1729 5.77258 15.1875 5.6994 15.1875 5.62549C15.1875 5.55158 15.1729 5.47839 15.1447 5.41011C15.1164 5.34183 15.0749 5.27978 15.0227 5.22752L12.7727 2.97752C12.7204 2.92522 12.6584 2.88373 12.5901 2.85542C12.5218 2.82712 12.4486 2.81255 12.3747 2.81255C12.3008 2.81255 12.2276 2.82712 12.1593 2.85542C12.091 2.88373 12.029 2.92522 11.9767 2.97752L9.72672 5.22752C9.67442 5.27976 9.63293 5.3418 9.60462 5.41008C9.57631 5.47837 9.56174 5.55157 9.56174 5.62549C9.56174 5.69941 9.57631 5.77261 9.60462 5.84089Z" fill="#F9F9F9"/>
</svg>
