<svg width="36" height="36" viewBox="0 0 36 36" fill="none" xmlns="http://www.w3.org/2000/svg">
<path opacity="0.2" d="M15.75 23.625C15.75 24.515 15.4861 25.385 14.9916 26.1251C14.4971 26.8651 13.7943 27.4419 12.9721 27.7825C12.1498 28.1231 11.245 28.2122 10.3721 28.0385C9.49918 27.8649 8.69736 27.4363 8.06802 26.807C7.43868 26.1776 7.0101 25.3758 6.83647 24.5029C6.66283 23.63 6.75195 22.7252 7.09254 21.9029C7.43314 21.0807 8.00991 20.3779 8.74994 19.8834C9.48996 19.3889 10.36 19.125 11.25 19.125C12.4435 19.125 13.5881 19.5991 14.432 20.443C15.2759 21.2869 15.75 22.4315 15.75 23.625ZM11.25 4.5C10.36 4.5 9.48996 4.76392 8.74994 5.25839C8.00991 5.75285 7.43314 6.45566 7.09254 7.27793C6.75195 8.10019 6.66283 9.00499 6.83647 9.87791C7.0101 10.7508 7.43868 11.5526 8.06802 12.182C8.69736 12.8113 9.49918 13.2399 10.3721 13.4135C11.245 13.5872 12.1498 13.4981 12.9721 13.1575C13.7943 12.8169 14.4971 12.2401 14.9916 11.5001C15.4861 10.76 15.75 9.89002 15.75 9C15.75 7.80653 15.2759 6.66193 14.432 5.81802C13.5881 4.97411 12.4435 4.5 11.25 4.5ZM24.75 19.125C23.86 19.125 22.99 19.3889 22.2499 19.8834C21.5099 20.3779 20.9331 21.0807 20.5925 21.9029C20.2519 22.7252 20.1628 23.63 20.3365 24.5029C20.5101 25.3758 20.9387 26.1776 21.568 26.807C22.1974 27.4363 22.9992 27.8649 23.8721 28.0385C24.745 28.2122 25.6498 28.1231 26.4721 27.7825C27.2943 27.4419 27.9971 26.8651 28.4916 26.1251C28.9861 25.385 29.25 24.515 29.25 23.625C29.25 22.4315 28.7759 21.2869 27.932 20.443C27.0881 19.5991 25.9435 19.125 24.75 19.125ZM24.75 13.5C25.64 13.5 26.51 13.2361 27.2501 12.7416C27.9901 12.2471 28.5669 11.5443 28.9075 10.7221C29.2481 9.89981 29.3372 8.99501 29.1635 8.1221C28.9899 7.24918 28.5613 6.44736 27.932 5.81802C27.3026 5.18868 26.5008 4.7601 25.6279 4.58647C24.755 4.41283 23.8502 4.50195 23.0279 4.84254C22.2057 5.18314 21.5029 5.75991 21.0084 6.49994C20.5139 7.23996 20.25 8.10999 20.25 9C20.25 10.1935 20.7241 11.3381 21.568 12.182C22.4119 13.0259 23.5565 13.5 24.75 13.5Z" fill="#6EE2E4"/>
<path d="M3.825 17.775C3.94319 17.8636 4.07768 17.9281 4.2208 17.9648C4.36391 18.0014 4.51285 18.0096 4.6591 17.9887C4.80535 17.9678 4.94606 17.9183 5.07318 17.843C5.2003 17.7677 5.31136 17.6682 5.4 17.55C6.08114 16.6418 6.96437 15.9047 7.97975 15.397C8.99513 14.8893 10.1148 14.625 11.25 14.625C12.3852 14.625 13.5049 14.8893 14.5202 15.397C15.5356 15.9047 16.4189 16.6418 17.1 17.55C17.2792 17.7884 17.5458 17.946 17.8412 17.9879C18.1366 18.0298 18.4365 17.9527 18.675 17.7736C18.76 17.7103 18.8354 17.635 18.8986 17.55C19.5797 16.6418 20.463 15.9047 21.4783 15.397C22.4937 14.8893 23.6134 14.625 24.7486 14.625C25.8838 14.625 27.0035 14.8893 28.0188 15.397C29.0342 15.9047 29.9175 16.6418 30.5986 17.55C30.7778 17.7887 31.0445 17.9464 31.34 17.9885C31.6355 18.0305 31.9356 17.9535 32.1743 17.7743C32.413 17.5951 32.5707 17.3284 32.6128 17.0329C32.6548 16.7374 32.5778 16.4373 32.3986 16.1986C31.4028 14.8636 30.0749 13.8125 28.5469 13.1498C29.3846 12.385 29.9715 11.3848 30.2305 10.2805C30.4896 9.17617 30.4088 8.01933 29.9986 6.96178C29.5885 5.90422 28.8682 4.99538 27.9322 4.35452C26.9963 3.71366 25.8885 3.37073 24.7542 3.37073C23.6199 3.37073 22.5121 3.71366 21.5762 4.35452C20.6403 4.99538 19.92 5.90422 19.5098 6.96178C19.0997 8.01933 19.0188 9.17617 19.2779 10.2805C19.537 11.3848 20.1239 12.385 20.9616 13.1498C19.8583 13.6269 18.856 14.3098 18.0084 15.1622C17.1609 14.3098 16.1586 13.6269 15.0553 13.1498C15.893 12.385 16.4799 11.3848 16.739 10.2805C16.998 9.17617 16.9172 8.01933 16.5071 6.96178C16.0969 5.90422 15.3766 4.99538 14.4407 4.35452C13.5048 3.71366 12.397 3.37073 11.2627 3.37073C10.1284 3.37073 9.02055 3.71366 8.08463 4.35452C7.14872 4.99538 6.42842 5.90422 6.01826 6.96178C5.60811 8.01933 5.52727 9.17617 5.78634 10.2805C6.04542 11.3848 6.63231 12.385 7.47 13.1498C5.93529 13.8103 4.60083 14.8621 3.6 16.2C3.51136 16.3182 3.44686 16.4526 3.4102 16.5958C3.37353 16.7389 3.36541 16.8878 3.38631 17.0341C3.4072 17.1803 3.4567 17.321 3.53197 17.4481C3.60724 17.5753 3.70681 17.6863 3.825 17.775ZM24.75 5.62496C25.4175 5.62496 26.07 5.8229 26.625 6.19375C27.1801 6.5646 27.6126 7.09171 27.8681 7.70841C28.1235 8.32511 28.1904 9.00371 28.0602 9.65839C27.9299 10.3131 27.6085 10.9144 27.1365 11.3864C26.6645 11.8585 26.0631 12.1799 25.4084 12.3101C24.7537 12.4403 24.0751 12.3735 23.4584 12.1181C22.8417 11.8626 22.3146 11.43 21.9438 10.875C21.5729 10.32 21.375 9.66748 21.375 8.99996C21.375 8.10486 21.7306 7.24641 22.3635 6.61348C22.9964 5.98054 23.8549 5.62496 24.75 5.62496ZM11.25 5.62496C11.9175 5.62496 12.57 5.8229 13.125 6.19375C13.6801 6.5646 14.1126 7.09171 14.3681 7.70841C14.6235 8.32511 14.6904 9.00371 14.5602 9.65839C14.4299 10.3131 14.1085 10.9144 13.6365 11.3864C13.1645 11.8585 12.5631 12.1799 11.9084 12.3101C11.2537 12.4403 10.5751 12.3735 9.95844 12.1181C9.34174 11.8626 8.81464 11.43 8.44379 10.875C8.07294 10.32 7.875 9.66748 7.875 8.99996C7.875 8.10486 8.23058 7.24641 8.86351 6.61348C9.49645 5.98054 10.3549 5.62496 11.25 5.62496ZM28.5469 27.7748C29.3846 27.01 29.9715 26.0098 30.2305 24.9055C30.4896 23.8012 30.4088 22.6443 29.9986 21.5868C29.5885 20.5292 28.8682 19.6204 27.9322 18.9795C26.9963 18.3387 25.8885 17.9957 24.7542 17.9957C23.6199 17.9957 22.5121 18.3387 21.5762 18.9795C20.6403 19.6204 19.92 20.5292 19.5098 21.5868C19.0997 22.6443 19.0188 23.8012 19.2779 24.9055C19.537 26.0098 20.1239 27.01 20.9616 27.7748C19.8583 28.2519 18.856 28.9348 18.0084 29.7872C17.1609 28.9348 16.1586 28.2519 15.0553 27.7748C15.893 27.01 16.4799 26.0098 16.739 24.9055C16.998 23.8012 16.9172 22.6443 16.5071 21.5868C16.0969 20.5292 15.3766 19.6204 14.4407 18.9795C13.5048 18.3387 12.397 17.9957 11.2627 17.9957C10.1284 17.9957 9.02055 18.3387 8.08463 18.9795C7.14872 19.6204 6.42842 20.5292 6.01826 21.5868C5.60811 22.6443 5.52727 23.8012 5.78634 24.9055C6.04542 26.0098 6.63231 27.01 7.47 27.7748C5.93529 28.4353 4.60083 29.4871 3.6 30.825C3.51136 30.9432 3.44686 31.0776 3.4102 31.2208C3.37353 31.3639 3.36541 31.5128 3.38631 31.6591C3.4072 31.8053 3.4567 31.946 3.53197 32.0731C3.60724 32.2003 3.70681 32.3113 3.825 32.4C3.94319 32.4886 4.07768 32.5531 4.2208 32.5898C4.36391 32.6264 4.51285 32.6346 4.6591 32.6137C4.80535 32.5928 4.94606 32.5433 5.07318 32.468C5.2003 32.3927 5.31136 32.2932 5.4 32.175C6.08114 31.2668 6.96437 30.5297 7.97975 30.022C8.99513 29.5143 10.1148 29.25 11.25 29.25C12.3852 29.25 13.5049 29.5143 14.5202 30.022C15.5356 30.5297 16.4189 31.2668 17.1 32.175C17.2792 32.4134 17.5458 32.571 17.8412 32.6129C18.1366 32.6548 18.4365 32.5777 18.675 32.3986C18.76 32.3353 18.8354 32.26 18.8986 32.175C19.5797 31.2668 20.463 30.5297 21.4783 30.022C22.4937 29.5143 23.6134 29.25 24.7486 29.25C25.8838 29.25 27.0035 29.5143 28.0188 30.022C29.0342 30.5297 29.9175 31.2668 30.5986 32.175C30.7778 32.4137 31.0445 32.5714 31.34 32.6135C31.6355 32.6555 31.9356 32.5785 32.1743 32.3993C32.413 32.2201 32.5707 31.9534 32.6128 31.6579C32.6548 31.3624 32.5778 31.0623 32.3986 30.8236C31.4028 29.4886 30.0749 28.4375 28.5469 27.7748ZM11.25 20.25C11.9175 20.25 12.57 20.4479 13.125 20.8188C13.6801 21.1896 14.1126 21.7167 14.3681 22.3334C14.6235 22.9501 14.6904 23.6287 14.5602 24.2834C14.4299 24.9381 14.1085 25.5394 13.6365 26.0114C13.1645 26.4835 12.5631 26.8049 11.9084 26.9351C11.2537 27.0653 10.5751 26.9985 9.95844 26.7431C9.34174 26.4876 8.81464 26.055 8.44379 25.5C8.07294 24.945 7.875 24.2925 7.875 23.625C7.875 22.7299 8.23058 21.8714 8.86351 21.2385C9.49645 20.6055 10.3549 20.25 11.25 20.25ZM24.75 20.25C25.4175 20.25 26.07 20.4479 26.625 20.8188C27.1801 21.1896 27.6126 21.7167 27.8681 22.3334C28.1235 22.9501 28.1904 23.6287 28.0602 24.2834C27.9299 24.9381 27.6085 25.5394 27.1365 26.0114C26.6645 26.4835 26.0631 26.8049 25.4084 26.9351C24.7537 27.0653 24.0751 26.9985 23.4584 26.7431C22.8417 26.4876 22.3146 26.055 21.9438 25.5C21.5729 24.945 21.375 24.2925 21.375 23.625C21.375 22.7299 21.7306 21.8714 22.3635 21.2385C22.9964 20.6055 23.8549 20.25 24.75 20.25Z" fill="#3A94C7"/>
</svg>
