<svg width="36" height="36" viewBox="0 0 36 36" fill="none" xmlns="http://www.w3.org/2000/svg">
<path opacity="0.2" d="M30.495 29.1895C29.8717 29.2995 29.2311 29.2576 28.6274 29.0674C28.0238 28.8772 27.4748 28.5443 27.0272 28.0969L21.1055 21.375H24.1866C25.2543 21.3762 26.3093 21.1432 27.2772 20.6926C28.2452 20.2419 29.1026 19.5845 29.789 18.7667C30.4755 17.9489 30.9743 16.9905 31.2503 15.9591C31.5263 14.9276 31.5728 13.8482 31.3866 12.7969L33.6872 24.6333C33.8671 25.6607 33.6319 26.7174 33.0335 27.5716C32.435 28.4259 31.522 29.0077 30.495 29.1895Z" fill="#6EE2E4"/>
<path d="M24.7481 15.75H21.3731C21.0748 15.75 20.7886 15.6315 20.5776 15.4205C20.3667 15.2095 20.2481 14.9234 20.2481 14.625C20.2481 14.3266 20.3667 14.0405 20.5776 13.8295C20.7886 13.6185 21.0748 13.5 21.3731 13.5H24.7481C25.0465 13.5 25.3326 13.6185 25.5436 13.8295C25.7546 14.0405 25.8731 14.3266 25.8731 14.625C25.8731 14.9234 25.7546 15.2095 25.5436 15.4205C25.3326 15.6315 25.0465 15.75 24.7481 15.75ZM14.6231 13.5H13.4981V12.375C13.4981 12.0766 13.3796 11.7905 13.1686 11.5795C12.9576 11.3685 12.6715 11.25 12.3731 11.25C12.0748 11.25 11.7886 11.3685 11.5776 11.5795C11.3667 11.7905 11.2481 12.0766 11.2481 12.375V13.5H10.1231C9.82476 13.5 9.53861 13.6185 9.32763 13.8295C9.11665 14.0405 8.99813 14.3266 8.99813 14.625C8.99813 14.9234 9.11665 15.2095 9.32763 15.4205C9.53861 15.6315 9.82476 15.75 10.1231 15.75H11.2481V16.875C11.2481 17.1734 11.3667 17.4595 11.5776 17.6705C11.7886 17.8815 12.0748 18 12.3731 18C12.6715 18 12.9576 17.8815 13.1686 17.6705C13.3796 17.4595 13.4981 17.1734 13.4981 16.875V15.75H14.6231C14.9215 15.75 15.2076 15.6315 15.4186 15.4205C15.6296 15.2095 15.7481 14.9234 15.7481 14.625C15.7481 14.3266 15.6296 14.0405 15.4186 13.8295C15.2076 13.6185 14.9215 13.5 14.6231 13.5ZM33.9563 28.2164C33.5323 28.8219 32.9808 29.3271 32.3407 29.6967C31.7006 30.0663 30.9873 30.2912 30.251 30.3557C29.5146 30.4202 28.7731 30.3226 28.0785 30.0699C27.3839 29.8171 26.7531 29.4154 26.2303 28.8928C26.2134 28.8759 26.1966 28.8591 26.1811 28.8408L20.5969 22.5H15.3938L9.81516 28.8408L9.76594 28.8928C8.8156 29.8411 7.52816 30.3741 6.18563 30.375C5.44656 30.3747 4.71651 30.2126 4.04677 29.9001C3.37702 29.5876 2.78383 29.1322 2.30886 28.566C1.83389 27.9997 1.48866 27.3364 1.29742 26.6225C1.10618 25.9086 1.07357 25.1614 1.20188 24.4336C1.2012 24.427 1.2012 24.4205 1.20188 24.4139L3.50391 12.5887C3.84651 10.6384 4.86552 8.87114 6.38188 7.59757C7.89823 6.32399 9.81492 5.62556 11.7952 5.625H24.1856C26.1599 5.62815 28.0707 6.32259 29.5863 7.58774C31.1019 8.85289 32.1266 10.6089 32.4825 12.5508C32.4825 12.5592 32.4825 12.5677 32.4825 12.5761L34.7845 24.4125C34.7852 24.419 34.7852 24.4256 34.7845 24.4322C34.9037 25.0864 34.8918 25.7577 34.7496 26.4073C34.6075 27.0569 34.3378 27.6718 33.9563 28.2164ZM24.1856 20.25C25.8267 20.25 27.4005 19.5981 28.5609 18.4377C29.7212 17.2773 30.3731 15.7035 30.3731 14.0625C30.3731 12.4215 29.7212 10.8477 28.5609 9.68728C27.4005 8.5269 25.8267 7.875 24.1856 7.875H11.7952C10.3424 7.8763 8.9367 8.38988 7.82528 9.32537C6.71385 10.2609 5.96793 11.5583 5.71875 12.9895V13.0078L3.41532 24.833C3.3135 25.4192 3.40024 26.0227 3.66307 26.5565C3.92589 27.0903 4.35125 27.5271 4.87798 27.8039C5.4047 28.0807 6.00565 28.1833 6.59438 28.097C7.18311 28.0106 7.7293 27.7398 8.15438 27.3234L14.0494 20.6311C14.1549 20.5113 14.2848 20.4154 14.4302 20.3497C14.5757 20.284 14.7335 20.25 14.8931 20.25H24.1856ZM32.5809 24.833L31.3519 18.5048C30.596 19.7255 29.5411 20.733 28.2871 21.4321C27.033 22.1312 25.6214 22.4988 24.1856 22.5H23.595L27.8419 27.3248C28.1621 27.6363 28.5516 27.8674 28.9784 27.9991C29.4052 28.1309 29.8572 28.1596 30.2972 28.0828C31.0303 27.9534 31.6821 27.5387 32.1099 26.9295C32.5377 26.3204 32.7066 25.5664 32.5795 24.833H32.5809Z" fill="#3A94C7"/>
</svg>
