<svg width="36" height="36" viewBox="0 0 36 36" fill="none" xmlns="http://www.w3.org/2000/svg">
<path opacity="0.2" d="M29.25 7.875V28.125C29.25 28.4234 29.1315 28.7095 28.9205 28.9205C28.7095 29.1315 28.4234 29.25 28.125 29.25H7.875C7.57663 29.25 7.29048 29.1315 7.07951 28.9205C6.86853 28.7095 6.75 28.4234 6.75 28.125V7.875C6.75 7.57663 6.86853 7.29048 7.07951 7.07951C7.29048 6.86853 7.57663 6.75 7.875 6.75H28.125C28.4234 6.75 28.7095 6.86853 28.9205 7.07951C29.1315 7.29048 29.25 7.57663 29.25 7.875Z" fill="#6EE2E4"/>
<path d="M28.125 5.625H7.875C7.27826 5.625 6.70597 5.86205 6.28401 6.28401C5.86205 6.70597 5.625 7.27826 5.625 7.875V28.125C5.625 28.7217 5.86205 29.294 6.28401 29.716C6.70597 30.1379 7.27826 30.375 7.875 30.375H28.125C28.7217 30.375 29.294 30.1379 29.716 29.716C30.1379 29.294 30.375 28.7217 30.375 28.125V7.875C30.375 7.27826 30.1379 6.70597 29.716 6.28401C29.294 5.86205 28.7217 5.625 28.125 5.625ZM28.125 16.875H19.125V7.875H28.125V16.875ZM16.875 7.875V16.875H7.875V7.875H16.875ZM7.875 19.125H16.875V28.125H7.875V19.125ZM28.125 28.125H19.125V19.125H28.125V28.125Z" fill="#3A94C7"/>
</svg>
