<svg width="36" height="36" viewBox="0 0 36 36" fill="none" xmlns="http://www.w3.org/2000/svg">
<path opacity="0.2" d="M18 11.25V31.5C18 31.5 3.375 23.625 3.375 14.3438C3.375 12.3298 4.17505 10.3983 5.59916 8.97416C7.02326 7.55005 8.95476 6.75 10.9688 6.75C14.1455 6.75 16.8666 8.48109 18 11.25Z" fill="#6EE2E4"/>
<path d="M25.0312 5.625C22.1273 5.625 19.5848 6.87375 18 8.98453C16.4152 6.87375 13.8727 5.625 10.9688 5.625C8.65719 5.62761 6.44106 6.54702 4.80654 8.18154C3.17202 9.81606 2.25261 12.0322 2.25 14.3438C2.25 24.1875 16.8455 32.1567 17.467 32.4844C17.6309 32.5725 17.814 32.6186 18 32.6186C18.186 32.6186 18.3691 32.5725 18.533 32.4844C19.1545 32.1567 33.75 24.1875 33.75 14.3438C33.7474 12.0322 32.828 9.81606 31.1935 8.18154C29.5589 6.54702 27.3428 5.62761 25.0312 5.625ZM4.5 14.3438C4.50223 12.6288 5.18448 10.9848 6.39712 9.77212C7.60976 8.55948 9.25382 7.87723 10.9688 7.875C13.628 7.875 15.8709 9.25172 16.875 11.482V29.5312C13.1611 27.2025 4.5 21.0628 4.5 14.3438ZM19.125 29.5312V11.482C20.1291 9.25172 22.372 7.875 25.0312 7.875C26.7462 7.87723 28.3902 8.55948 29.6029 9.77212C30.8155 10.9848 31.4978 12.6288 31.5 14.3438C31.5 21.053 22.8403 27.1983 19.125 29.5312Z" fill="#3A94C7"/>
</svg>
