<svg width="36" height="36" viewBox="0 0 36 36" fill="none" xmlns="http://www.w3.org/2000/svg">
<path opacity="0.2" d="M31.5 17.9999C31.502 19.8932 31.1048 21.7656 30.3343 23.495C29.5637 25.2244 28.4372 26.7718 27.0281 28.0363C26.181 26.3701 24.8891 24.9708 23.2956 23.9937C21.7022 23.0165 19.8693 22.4995 18 22.4999C19.1125 22.4999 20.2001 22.17 21.1251 21.552C22.0501 20.9339 22.7711 20.0554 23.1968 19.0275C23.6226 17.9997 23.734 16.8687 23.5169 15.7776C23.2999 14.6864 22.7641 13.6841 21.9775 12.8975C21.1908 12.1108 20.1885 11.5751 19.0974 11.358C18.0062 11.141 16.8752 11.2524 15.8474 11.6781C14.8196 12.1039 13.9411 12.8248 13.323 13.7499C12.7049 14.6749 12.375 15.7624 12.375 16.8749C12.375 18.3668 12.9676 19.7975 14.0225 20.8524C15.0774 21.9073 16.5082 22.4999 18 22.4999C16.1308 22.4995 14.2979 23.0165 12.7044 23.9937C11.1109 24.9708 9.81901 26.3701 8.97188 28.0363C7.2988 26.5315 6.02844 24.6322 5.27633 22.5113C4.52423 20.3904 4.31423 18.1151 4.66543 15.8924C5.01663 13.6696 5.91789 11.5699 7.28726 9.78422C8.65662 7.99851 10.4507 6.58344 12.5062 5.66768C14.5618 4.75192 16.8136 4.36452 19.057 4.54072C21.3004 4.71691 23.4642 5.45111 25.3516 6.67655C27.239 7.90199 28.7901 9.57979 29.8639 11.5574C30.9377 13.535 31.5001 15.7496 31.5 17.9999Z" fill="#6EE2E4"/>
<path d="M23.626 7.87502C23.626 7.57665 23.7445 7.2905 23.9555 7.07952C24.1664 6.86854 24.4526 6.75002 24.751 6.75002H27.001V4.50002C27.001 4.20165 27.1195 3.9155 27.3305 3.70452C27.5414 3.49354 27.8276 3.37502 28.126 3.37502C28.4243 3.37502 28.7105 3.49354 28.9214 3.70452C29.1324 3.9155 29.251 4.20165 29.251 4.50002V6.75002H31.501C31.7993 6.75002 32.0855 6.86854 32.2964 7.07952C32.5074 7.2905 32.626 7.57665 32.626 7.87502C32.626 8.17338 32.5074 8.45953 32.2964 8.67051C32.0855 8.88149 31.7993 9.00002 31.501 9.00002H29.251V11.25C29.251 11.5484 29.1324 11.8345 28.9214 12.0455C28.7105 12.2565 28.4243 12.375 28.126 12.375C27.8276 12.375 27.5414 12.2565 27.3305 12.0455C27.1195 11.8345 27.001 11.5484 27.001 11.25V9.00002H24.751C24.4526 9.00002 24.1664 8.88149 23.9555 8.67051C23.7445 8.45953 23.626 8.17338 23.626 7.87502ZM32.4235 15.5644C32.9374 18.6196 32.4671 21.759 31.0805 24.5295C29.6939 27.2999 27.4627 29.558 24.7091 30.9778C21.9554 32.3975 18.8218 32.9053 15.7607 32.428C12.6996 31.9507 9.8694 30.5129 7.67872 28.3222C5.48804 26.1316 4.05025 23.3014 3.57293 20.2403C3.09562 17.1792 3.60349 14.0456 5.02321 11.2919C6.44293 8.53827 8.70104 6.30707 11.4715 4.92045C14.242 3.53383 17.3814 3.06355 20.4366 3.57752C20.7286 3.62916 20.9884 3.79403 21.1595 4.03625C21.3306 4.27847 21.3992 4.57846 21.3502 4.87096C21.3013 5.16346 21.1389 5.4248 20.8982 5.59814C20.6576 5.77148 20.3583 5.8428 20.0653 5.79658C18.2908 5.49807 16.4726 5.58982 14.7372 6.06546C13.0017 6.5411 11.3908 7.38919 10.0164 8.55072C8.64209 9.71224 7.53736 11.1593 6.77913 12.7912C6.0209 14.4231 5.62738 16.2006 5.62595 18C5.62329 21.0294 6.73668 23.9535 8.75345 26.2139C10.0082 24.3957 11.7724 22.9891 13.8244 22.171C12.7221 21.3028 11.9178 20.1127 11.5233 18.7663C11.1288 17.4198 11.1636 15.9839 11.623 14.6581C12.0824 13.3324 12.9435 12.1828 14.0866 11.3691C15.2297 10.5555 16.5979 10.1182 18.001 10.1182C19.404 10.1182 20.7722 10.5555 21.9153 11.3691C23.0584 12.1828 23.9195 13.3324 24.3789 14.6581C24.8383 15.9839 24.8731 17.4198 24.4786 18.7663C24.0841 20.1127 23.2798 21.3028 22.1775 22.171C24.2295 22.9891 25.9938 24.3957 27.2485 26.2139C29.2652 23.9535 30.3786 21.0294 30.376 18C30.376 17.3083 30.3186 16.6178 30.2044 15.9356C30.1785 15.7893 30.1819 15.6393 30.2143 15.4942C30.2467 15.3492 30.3076 15.212 30.3933 15.0907C30.4791 14.9693 30.588 14.8661 30.7139 14.787C30.8397 14.708 30.98 14.6547 31.1266 14.6302C31.2731 14.6056 31.4231 14.6104 31.5679 14.6442C31.7126 14.6779 31.8492 14.74 31.9698 14.8269C32.0904 14.9138 32.1925 15.0237 32.2704 15.1503C32.3483 15.2768 32.4003 15.4176 32.4235 15.5644ZM18.001 21.375C18.891 21.375 19.761 21.1111 20.501 20.6166C21.241 20.1222 21.8178 19.4194 22.1584 18.5971C22.499 17.7748 22.5881 16.87 22.4145 15.9971C22.2409 15.1242 21.8123 14.3224 21.1829 13.693C20.5536 13.0637 19.7518 12.6351 18.8789 12.4615C18.0059 12.2878 17.1011 12.377 16.2789 12.7176C15.4566 13.0582 14.7538 13.6349 14.2593 14.375C13.7649 15.115 13.501 15.985 13.501 16.875C13.501 18.0685 13.9751 19.2131 14.819 20.057C15.6629 20.9009 16.8075 21.375 18.001 21.375ZM18.001 30.375C20.7479 30.3778 23.4168 29.4621 25.5835 27.7735C24.7696 26.5006 23.6484 25.4532 22.3233 24.7276C20.9982 24.002 19.5117 23.6217 18.001 23.6217C16.4902 23.6217 15.0037 24.002 13.6786 24.7276C12.3535 25.4532 11.2323 26.5006 10.4185 27.7735C12.5851 29.4621 15.254 30.3778 18.001 30.375Z" fill="#3A94C7"/>
</svg>
